PathFileType	4	(X/Y/Z)	C:/Users/opensim2020/Desktop/walking_exp_matlab/subject01_walking06_straight_01.trc																																																																																																																															
DataRate	CameraRate	NumFrames	NumMarkers	Units	OrigDataRate	OrigDataStartFrame	OrigNumFrames																																																																																																																											
100	100	5	43	mm	100	891	251																																																																																																																											
Frame#	Time	LFHD			RFHD			LBHD			RBHD			C7			T10			CLAV			STRN			RBAK			LSHO			LUPA			LELB			LFRM			LWRA			LWRB			LFIN			RSHO			RUPA			RELB			RFRM			RWRA			RWRB			RFIN			LASI			RASI			LPSI			RPSI			LTHI			LKNE			LTIB			LANK			LHEE			LTOE			RTHI			RKNE			RTIB			RANK			RHEE			RTOE			*39			*40			*41			*42		
		X1	Y1	Z1	X2	Y2	Z2	X3	Y3	Z3	X4	Y4	Z4	X5	Y5	Z5	X6	Y6	Z6	X7	Y7	Z7	X8	Y8	Z8	X9	Y9	Z9	X10	Y10	Z10	X11	Y11	Z11	X12	Y12	Z12	X13	Y13	Z13	X14	Y14	Z14	X15	Y15	Z15	X16	Y16	Z16	X17	Y17	Z17	X18	Y18	Z18	X19	Y19	Z19	X20	Y20	Z20	X21	Y21	Z21	X22	Y22	Z22	X23	Y23	Z23	X24	Y24	Z24	X25	Y25	Z25	X26	Y26	Z26	X27	Y27	Z27	X28	Y28	Z28	X29	Y29	Z29	X30	Y30	Z30	X31	Y31	Z31	X32	Y32	Z32	X33	Y33	Z33	X34	Y34	Z34	X35	Y35	Z35	X36	Y36	Z36	X37	Y37	Z37	X38	Y38	Z38	X39	Y39	Z39	X40	Y40	Z40	X41	Y41	Z41	X42	Y42	Z42	X43	Y43	Z43
																																																																																																																																		
126	1.25	-309.15576	1673.28564	1393.45654	-284.94266	1682.60413	1504.86194	-409.85431	1601.15283	1413.45569	-386.76703	1609.35327	1531.72278	-418.2851	1429.90088	1445.36926	-456.91251	1137.66406	1450.24084	-275.58658	1360.15112	1443.89734	-235.78581	1203.34204	1435.53833	-474.7164	1234.94214	1517.17798	-335.00687	1393.95435	1285.11975	-337.43585	1212.42126	1194.2981	-316.44565	1060.82678	1186.29285	-234.38843	976.58215	1169.30286	-118.55808	905.45465	1198.44617	-163.01828	877.4137	1171.19287	-89.93534	834.7326	1168.60669	-338.3511	1386.74036	1596.07495	-414.11053	1189.75989	1688.97827	-424.82355	1065.94958	1687.85229	-410.78687	945.84772	1716.87122	-340.99097	822.91266	1701.29688	-387.89212	826.64954	1736.49536	-356.96008	746.64624	1735.88965	-291.24777	925.69458	1337.4314	-278.61145	936.94019	1554.03296	-474.50992	941.04901	1403.48767	-463.05185	943.24811	1549.11731	-355.77878	594.86841	1300.33472	-384.59375	461.24231	1317.04346	-460.44574	286.92709	1317.17566	-516.97217	77.10022	1374.17981	-564.02972	53.85862	1428.60645	-374.461	31.4984	1360.88525	-235.15735	617.82037	1623.521	-183.0457	469.2319	1600.37952	-226.20493	298.03796	1604.64905	-228.57401	89.96731	1556.82324	-266.99786	47.80032	1500.98779	-91.6526	59.66894	1574.03528	-307.8205	1712.03906	1484.61658	1973.02734	1023.39087	-3101.83667	2012.54883	1022.03125	-3140.56836	NaN	NaN	NaN
127	1.26	-300.30911	1672.83484	1394.50452	-276.1489	1682.08643	1505.91541	-400.91934	1600.4375	1414.37097	-377.79715	1608.56226	1532.64233	-409.02347	1429.32471	1446.07104	-447.91983	1137.23914	1451.12061	-266.33533	1359.62561	1444.55261	-226.60631	1202.80896	1435.88586	-465.5954	1234.3656	1517.77795	-325.73981	1393.64954	1285.83362	-327.42047	1212.31165	1194.82971	-305.3653	1060.81812	1186.48352	-222.60605	977.53168	1169.76135	-105.38202	908.15839	1198.66309	-149.47185	879.45062	1171.59448	-75.63359	837.64874	1168.94739	-329.22955	1386.06885	1596.75769	-405.52063	1189.15027	1689.24744	-416.45468	1065.38782	1687.99121	-403.2265	945.25195	1717.01233	-334.1615	821.89301	1701.83606	-381.11853	825.86432	1736.82043	-350.69037	745.92883	1736.40002	-283.00293	925.24628	1337.23206	-268.66492	936.31525	1553.97839	-465.41547	940.63141	1404.47913	-453.28049	942.75897	1549.86487	-350.1192	594.93079	1300.41284	-380.53366	461.49786	1317.14709	-458.13461	287.94244	1317.46472	-516.38379	78.72939	1374.5127	-563.84595	55.895	1428.99097	-374.45746	31.48599	1360.86182	-230.04398	615.44647	1623.37207	-175.90283	468.17557	1599.59314	-210.20923	295.31641	1605.26208	-199.90962	86.5453	1558.8269	-236.24966	41.88432	1503.54553	-60.95443	64.58149	1575.25012	-299.08627	1711.48547	1485.67664	1973.17627	1023.31757	-3101.89209	2012.64026	1022.11713	-3140.52417	NaN	NaN	NaN
128	1.27	-291.55939	1672.36609	1395.61145	-267.37335	1681.49475	1507	-391.9053	1599.61951	1415.4021	-368.85168	1607.68738	1533.68689	-399.7738	1428.67114	1446.84204	-438.82657	1136.73035	1452.2251	-257.07022	1359.09167	1445.32422	-217.39262	1202.19836	1436.34973	-456.38275	1233.67432	1518.5575	-316.56876	1393.23499	1286.6687	-317.41663	1212.09705	1195.47034	-294.50858	1060.74548	1186.80225	-210.34042	978.47455	1169.96521	-92.57973	910.6637	1198.99023	-136.34317	881.31989	1172.01611	-61.97483	840.66626	1169.05762	-320.01953	1385.38501	1597.55176	-396.87204	1188.50037	1689.62756	-408.01099	1064.84583	1688.2821	-395.49982	944.67157	1717.37512	-327.1442	820.83783	1702.42078	-374.16089	825.25244	1737.30273	-344.24182	744.96082	1736.95203	-274.03198	925.20929	1337.28979	-258.71011	935.62738	1553.84045	-456.32053	940.19379	1405.66125	-443.53558	942.11353	1550.86133	-344.36746	595.06921	1300.39099	-376.06754	461.84311	1317.24207	-455.67456	289.11752	1317.69824	-515.63068	80.02685	1374.70642	-563.04639	57.7212	1429.18323	-374.44107	31.44548	1360.88013	-222.87265	614.61255	1625.35767	-168.76845	466.78674	1598.72644	-194.43977	293.05481	1605.7887	-172.62523	84.69828	1561.02295	-207.0621	37.86406	1506.28638	-32.40733	69.95941	1576.37769	-290.38937	1710.8396	1486.79492	1973.10059	1023.29285	-3101.75513	2012.56445	1022.18445	-3140.59668	NaN	NaN	NaN
129	1.28	-282.73517	1671.76392	1396.80786	-258.56308	1680.84375	1508.21851	-382.94403	1598.79492	1416.56323	-359.85596	1606.74524	1534.82178	-390.56473	1428.15723	1447.90259	-429.68008	1136.14819	1453.53186	-247.83011	1358.49377	1446.25183	-208.14767	1201.64001	1436.94434	-447.07861	1232.96765	1519.56653	-307.26489	1392.76477	1287.65576	-307.34116	1211.92957	1196.23865	-283.71686	1060.60925	1187.1936	-198.99834	979.28729	1170.55383	-80.13433	912.94965	1199.39258	-123.38824	883.01996	1172.28442	-48.7918	843.66656	1169.10938	-310.7681	1384.69116	1598.53711	-388.1022	1187.83093	1690.13599	-399.37598	1064.19763	1688.6709	-387.60593	944.10468	1717.81274	-319.89902	819.8335	1703.10071	-367.15128	824.49377	1737.78577	-337.58685	744.13953	1737.63538	-265.25662	925.15662	1337.29431	-248.64235	934.9671	1553.77832	-447.09628	939.6861	1406.89087	-433.4137	941.30829	1551.79565	-338.32513	595.31354	1300.31616	-371.42416	462.25452	1317.22876	-453.02246	290.42932	1317.80554	-514.98804	81.85646	1374.95007	-562.46973	60.07077	1429.38159	-374.50552	31.50949	1360.87817	-217.98978	612.03613	1626.12012	-161.40581	465.48923	1598.02869	-179.116	291.4559	1606.4563	-147.05991	83.82851	1562.9884	-179.40996	34.88534	1508.68335	-6.00812	75.51792	1577.43152	-281.67957	1710.151	1488.02808	1973.09509	1023.7215	-3101.88867	2012.5238	1021.94971	-3140.56445	NaN	NaN	NaN
130	1.29	-273.89566	1671.11548	1398.14453	-249.69891	1680.19617	1509.53345	-373.98514	1597.99414	1417.87622	-350.88254	1605.85583	1536.11328	-381.32932	1427.49292	1449.00171	-420.30197	1135.43311	1454.8855	-238.52931	1357.90198	1447.30139	-198.84831	1201.0592	1437.71594	-437.75348	1232.271	1520.72302	-298.00781	1392.31274	1288.83276	-297.50845	1211.7561	1197.10254	-273.08383	1060.45691	1187.67627	-187.59581	979.98462	1171.07104	-68.02325	914.9986	1199.85913	-110.99073	884.55591	1172.84375	-35.87086	845.95471	1169.58716	-301.49194	1383.99695	1599.6261	-379.30475	1187.1449	1690.81006	-390.66068	1063.63391	1689.23303	-379.5527	943.39362	1718.33362	-312.38992	818.8634	1703.89014	-359.72833	823.74304	1738.35974	-330.72537	743.13757	1738.2522	-256.28464	925.14587	1337.21582	-238.47125	934.30115	1553.82642	-437.67899	939.08649	1408.1543	-423.45352	940.39771	1552.76074	-332.02374	595.47858	1300.21265	-366.40414	462.66714	1317.15088	-450.19077	291.78519	1317.82239	-514.367	83.96638	1375.13	-561.81781	62.45934	1429.38818	-374.75198	31.65746	1360.73108	-212.7384	609.5351	1627.2063	-153.74509	464.31796	1597.55005	-164.2368	290.35599	1607.30701	-123.62788	83.94399	1564.69373	-154.64293	33.52888	1510.34509	18.01465	80.33711	1577.91785	-272.88605	1709.45752	1489.43054	1973.02869	1023.67609	-3101.86816	2012.48499	1021.9577	-3140.63428	NaN	NaN	NaN
